<svg width="20" height="20" viewBox="0 0 20 20" fill="none" xmlns="http://www.w3.org/2000/svg">
<mask id="mask0_318_3841" style="mask-type:alpha" maskUnits="userSpaceOnUse" x="0" y="0" width="20" height="20">
<rect width="20" height="20" fill="#D9D9D9"/>
</mask>
<g mask="url(#mask0_318_3841)">
<path d="M7.75654 14.7915V13.7082H16.5834V14.7915H7.75654ZM7.75654 10.5415V9.45819H16.5834V10.5415H7.75654ZM7.75654 6.29152V5.20819H16.5834V6.29152H7.75654ZM4.63196 15.4694C4.29529 15.4694 4.00862 15.3496 3.77196 15.1099C3.53515 14.8701 3.41675 14.582 3.41675 14.2455C3.41675 13.9088 3.53661 13.6221 3.77633 13.3855C4.01605 13.1487 4.30418 13.0303 4.64071 13.0303C4.97737 13.0303 5.26404 13.1501 5.50071 13.3899C5.73751 13.6296 5.85591 13.9177 5.85591 14.2542C5.85591 14.5909 5.73605 14.8776 5.49633 15.1142C5.25661 15.351 4.96848 15.4694 4.63196 15.4694ZM4.63196 11.2194C4.29529 11.2194 4.00862 11.0996 3.77196 10.8599C3.53515 10.6201 3.41675 10.332 3.41675 9.99548C3.41675 9.65881 3.53661 9.37215 3.77633 9.13548C4.01605 8.89868 4.30418 8.78027 4.64071 8.78027C4.97737 8.78027 5.26404 8.90013 5.50071 9.13986C5.73751 9.37958 5.85591 9.6677 5.85591 10.0042C5.85591 10.3409 5.73605 10.6276 5.49633 10.8642C5.25661 11.101 4.96848 11.2194 4.63196 11.2194ZM4.63196 6.96944C4.29529 6.96944 4.00862 6.84958 3.77196 6.60986C3.53515 6.37013 3.41675 6.08201 3.41675 5.74548C3.41675 5.40881 3.53661 5.12215 3.77633 4.88548C4.01605 4.64868 4.30418 4.53027 4.64071 4.53027C4.97737 4.53027 5.26404 4.65013 5.50071 4.88986C5.73751 5.12958 5.85591 5.4177 5.85591 5.75423C5.85591 6.0909 5.73605 6.37756 5.49633 6.61423C5.25661 6.85104 4.96848 6.96944 4.63196 6.96944Z" fill="#1C1B1F"/>
</g>
</svg>
