<svg width="20" height="20" viewBox="0 0 20 20" fill="none" xmlns="http://www.w3.org/2000/svg">
<mask id="mask0_318_3780" style="mask-type:alpha" maskUnits="userSpaceOnUse" x="0" y="0" width="20" height="20">
<rect width="20" height="20" fill="#D9D9D9"/>
</mask>
<g mask="url(#mask0_318_3780)">
<path d="M4.75654 16.5832C4.3814 16.5832 4.06432 16.4537 3.80529 16.1946C3.54626 15.9356 3.41675 15.6185 3.41675 15.2434V4.7563C3.41675 4.38116 3.54626 4.06407 3.80529 3.80505C4.06432 3.54602 4.3814 3.4165 4.75654 3.4165H10.8399V4.49984H4.75654C4.68168 4.49984 4.62022 4.52387 4.57216 4.57192C4.52411 4.61998 4.50008 4.68143 4.50008 4.7563V15.2434C4.50008 15.3182 4.52411 15.3797 4.57216 15.4278C4.62022 15.4758 4.68168 15.4998 4.75654 15.4998H15.2436C15.3185 15.4998 15.3799 15.4758 15.428 15.4278C15.4761 15.3797 15.5001 15.3182 15.5001 15.2434V9.16005H16.5834V15.2434C16.5834 15.6185 16.4539 15.9356 16.1949 16.1946C15.9358 16.4537 15.6188 16.5832 15.2436 16.5832H4.75654ZM5.82071 13.7434H14.1795L11.3959 10.0319L9.14592 12.9438L7.75008 11.1921L5.82071 13.7434ZM14.0001 7.49984V5.99984H12.5001V4.9165H14.0001V3.4165H15.0834V4.9165H16.5834V5.99984H15.0834V7.49984H14.0001Z" fill="#1C1B1F"/>
</g>
</svg>
