<svg width="29" height="29" viewBox="0 0 29 29" fill="none" xmlns="http://www.w3.org/2000/svg">
<mask id="mask0_318_3774" style="mask-type:alpha" maskUnits="userSpaceOnUse" x="0" y="0" width="29" height="29">
<rect y="14.1421" width="20" height="20" transform="rotate(-45 0 14.1421)" fill="#D9D9D9"/>
</mask>
<g mask="url(#mask0_318_3774)">
<path d="M15.8782 17.5189L13.8928 19.5043C13.1855 20.2116 12.3331 20.5649 11.3355 20.5644C10.3379 20.5638 9.48502 20.2094 8.77693 19.5013C8.06874 18.7932 7.71538 17.9413 7.71686 16.9457C7.71823 15.9501 8.07257 15.0986 8.77987 14.3913L10.7652 12.406L11.5313 13.172L9.54591 15.1573C9.05103 15.6522 8.80364 16.249 8.80374 16.9478C8.80374 17.6467 9.05113 18.2435 9.54591 18.7383C10.0407 19.233 10.6375 19.4804 11.3364 19.4804C12.0351 19.4805 12.6319 19.2331 13.1268 18.7383L15.1122 16.7529L15.8782 17.5189ZM12.5511 16.4991L11.7851 15.733L15.7331 11.785L16.4991 12.5511L12.5511 16.4991ZM17.519 15.8782L16.7529 15.1121L18.7383 13.1268C19.2332 12.6319 19.4806 12.0351 19.4805 11.3363C19.4805 10.6375 19.2331 10.0406 18.7383 9.54586C18.2435 9.05109 17.6467 8.8037 16.9478 8.8037C16.2491 8.8036 15.6523 9.05099 15.1574 9.54586L13.172 11.5312L12.406 10.7652L14.3914 8.77983C15.0987 8.07253 15.9511 7.71917 16.9487 7.71976C17.9463 7.72035 18.7992 8.07469 19.5073 8.78278C20.2155 9.49097 20.5688 10.3428 20.5673 11.3384C20.566 12.334 20.2116 13.1855 19.5043 13.8928L17.519 15.8782Z" fill="#1C1B1F"/>
</g>
</svg>
