<svg width="20" height="20" viewBox="0 0 20 20" fill="none" xmlns="http://www.w3.org/2000/svg">
<mask id="mask0_318_3847" style="mask-type:alpha" maskUnits="userSpaceOnUse" x="0" y="0" width="20" height="20">
<rect width="20" height="20" fill="#D9D9D9"/>
</mask>
<g mask="url(#mask0_318_3847)">
<path d="M3.41675 16.5832V15.8396H5.41675V15.0832H4.41675V14.3396H5.41675V13.5832H3.41675V12.8396H5.78862C5.8939 12.8396 5.98216 12.8753 6.05341 12.9465C6.12466 13.0178 6.16029 13.106 6.16029 13.2113V14.3717C6.16029 14.477 6.12466 14.5653 6.05341 14.6365C5.98216 14.7078 5.8939 14.7434 5.78862 14.7434C5.8939 14.7434 5.98216 14.779 6.05341 14.8503C6.12466 14.9215 6.16029 15.0098 6.16029 15.1153V16.2113C6.16029 16.3167 6.12466 16.405 6.05341 16.4763C5.98216 16.5475 5.8939 16.5832 5.78862 16.5832H3.41675ZM3.41675 11.8717V9.99984C3.41675 9.89456 3.45237 9.80623 3.52362 9.73484C3.59487 9.66359 3.68321 9.62796 3.78862 9.62796H5.41675V8.87171H3.41675V8.12796H5.78862C5.8939 8.12796 5.98216 8.16359 6.05341 8.23484C6.12466 8.30623 6.16029 8.39456 6.16029 8.49984V9.99984C6.16029 10.1051 6.12466 10.1934 6.05341 10.2648C5.98216 10.3361 5.8939 10.3717 5.78862 10.3717H4.16029V11.128H6.16029V11.8717H3.41675ZM4.41675 7.16005V4.16005H3.41675V3.4165H5.16029V7.16005H4.41675ZM7.75654 14.7915V13.7082H16.5834V14.7915H7.75654ZM7.75654 10.5415V9.45817H16.5834V10.5415H7.75654ZM7.75654 6.2915V5.20817H16.5834V6.2915H7.75654Z" fill="#1C1B1F"/>
</g>
</svg>
