<svg width="20" height="20" viewBox="0 0 20 20" fill="none" xmlns="http://www.w3.org/2000/svg">
<mask id="mask0_318_3835" style="mask-type:alpha" maskUnits="userSpaceOnUse" x="0" y="0" width="20" height="20">
<rect width="20" height="20" fill="#D9D9D9"/>
</mask>
<g mask="url(#mask0_318_3835)">
<path d="M4.75654 16.5832C4.33557 16.5832 4.00703 16.4651 3.77091 16.229C3.5348 15.9929 3.41675 15.6644 3.41675 15.2434V4.7563C3.41675 4.33532 3.5348 4.00678 3.77091 3.77067C4.00703 3.53456 4.33557 3.4165 4.75654 3.4165H15.2436C15.6646 3.4165 15.9931 3.53456 16.2292 3.77067C16.4654 4.00678 16.5834 4.33532 16.5834 4.7563V15.2434C16.5834 15.6644 16.4654 15.9929 16.2292 16.229C15.9931 16.4651 15.6646 16.5832 15.2436 16.5832H4.75654ZM9.45842 12.0015H4.50008V15.2434C4.50008 15.3182 4.52411 15.3797 4.57216 15.4278C4.62022 15.4758 4.68168 15.4998 4.75654 15.4998H9.45842V12.0015ZM10.5417 12.0015V15.4998H15.2436C15.3185 15.4998 15.3799 15.4758 15.428 15.4278C15.4761 15.3797 15.5001 15.3182 15.5001 15.2434V12.0015H10.5417ZM9.45842 10.9182V7.40359H4.50008V10.9182H9.45842ZM10.5417 10.9182H15.5001V7.40359H10.5417V10.9182ZM4.50008 6.32046H15.5001V4.7563C15.5001 4.68143 15.4761 4.61998 15.428 4.57192C15.3799 4.52387 15.3185 4.49984 15.2436 4.49984H4.75654C4.68168 4.49984 4.62022 4.52387 4.57216 4.57192C4.52411 4.61998 4.50008 4.68143 4.50008 4.7563V6.32046Z" fill="#1C1B1F"/>
</g>
</svg>
