<svg width="16" height="16" viewBox="0 0 16 16" fill="none" xmlns="http://www.w3.org/2000/svg">
<mask id="mask0_282_728" style="mask-type:alpha" maskUnits="userSpaceOnUse" x="0" y="0" width="16" height="16">
<rect width="16" height="16" fill="#D9D9D9"/>
</mask>
<g mask="url(#mask0_282_728)">
<path d="M7.93342 14.6663L10.9667 6.66634H12.3667L15.4001 14.6663H14.0001L13.2834 12.633H10.0501L9.33342 14.6663H7.93342ZM2.66675 12.6663L1.73341 11.733L5.10008 8.36634C4.71119 7.97745 4.35841 7.53301 4.04175 7.03301C3.72508 6.53301 3.43341 5.96634 3.16675 5.33301H4.56675C4.78897 5.76634 5.01119 6.14412 5.23341 6.46634C5.45564 6.78856 5.7223 7.11079 6.03341 7.43301C6.40008 7.06634 6.78064 6.55245 7.17508 5.89134C7.56953 5.23023 7.86675 4.59967 8.06675 3.99967H0.666748V2.66634H5.33342V1.33301H6.66675V2.66634H11.3334V3.99967H9.40008C9.16675 4.79967 8.81675 5.6219 8.35008 6.46634C7.88342 7.31079 7.4223 7.95523 6.96675 8.39967L8.56675 10.033L8.06675 11.3997L6.03341 9.31634L2.66675 12.6663ZM10.4667 11.4663H12.8667L11.6667 8.06634L10.4667 11.4663Z" fill="#FF5E5E"/>
</g>
</svg>
